<?xml version="1.0" encoding="UTF-8"?><svg id="Layer_1" xmlns="http://www.w3.org/2000/svg" viewBox="0 0 792 612"><defs><style>.cls-1{fill:#004979;}.cls-2{fill:#b60f21;}.cls-3{fill:#000041;}</style></defs><path class="cls-3" d="M336.28,251.53c12.96-16.28,32.63-27.24,56.54-28.16,24.71-.95,45.77,8.98,60.09,24.79l52.18-9.02c.48-6.48,1.94-15.56,6.31-25.48,2.38-5.41,5.11-9.9,7.65-13.49-1.73-3.74-5.02-9.58-10.93-15.11-5.17-4.83-10.38-7.59-13.95-9.14-4.16,1.55-26.43,9.39-50.34-1.91-19.5-9.21-28.09-25.48-30.48-30.47-3.56-1.54-10.19-3.85-18.74-3.59-7.67.23-13.59,2.43-17,4-2.1,4.58-10.69,21.86-31.19,31.22-22.6,10.32-43.24,3.51-47.5,2-3.56,1.22-10.6,4.16-16.86,10.99-3.1,3.38-5.19,6.82-6.62,9.77l60.68,53.8c.05-.06.1-.13.15-.2Z"/><path class="cls-1" d="M536.36,294.58h-151.54v.31l.6.53-.6-.53v44.54h.03l.31-.35-.31.35h77.06c-12.94,21.45-36.13,36.19-63.06,37.18-14.07.53-27.46-2.87-39.13-9.13l-47.03,52.52c4.38-.6,10.05-1.02,15.81-.4,12.38,1.33,33.31,13.24,48.7,37.09,3.57,1.56,9.25,3.51,16.45,3.87,8.89.45,15.89-1.73,19.81-3.28,2.45-5.42,10.93-22.37,30.7-32.5,25.41-13.02,49.86-4.72,54.09-3.2,3.19-1.44,8.24-4.19,13.04-9.24,4.25-4.47,6.65-8.99,7.98-12.05-1.79-4.36-7.97-20.87-1.51-40.37,5.52-16.67,17.06-25.8,21.25-28.81,1.48-2.44,4.96-8.92,4.57-17.79-.43-9.96-5.47-16.63-7.22-18.76Z"/><path class="cls-2" d="M358.19,366.68c-21.8-12.32-37.19-34.91-38.71-61.34-1.15-19.9,5.03-38.91,16.65-53.61l-60.68-53.8c-.92,1.9-1.56,3.6-2,4.93,1.43,4.26,8.69,27.23-3.67,50.87-9.08,17.36-23.64,25.31-28.98,27.9-1.67,3.17-4.63,9.82-4.62,18.73,0,8.67,2.83,15.17,4.46,18.34,4.8,2.28,21.43,10.88,30.69,30.77,10.7,23.01,3.68,44.23,2.16,48.53,1.19,3.43,3.71,9.24,8.99,14.83,6.14,6.5,12.9,9.38,16.44,10.61,1.38-.53,3.31-1.21,5.66-1.87,0,0,3.27-.9,8.13-1.57l47.03-52.52c-.51-.27-1.03-.52-1.53-.8Z"/></svg>